{
    "asset" : {
        "generator" : "Khronos glTF Blender I/O v1.5.17",
        "version" : "2.0"
    },
    "extensionsUsed" : [
        "KHR_materials_unlit"
    ],
    "scene" : 0,
    "scenes" : [
        {
            "name" : "Scene",
            "nodes" : [
                0,
                1,
                2
            ]
        }
    ],
    "nodes" : [
        {
            "mesh" : 0,
            "name" : "Plane",
            "rotation" : [
                0,
                0,
                -0.7071067690849304,
                0.7071068286895752
            ],
            "scale" : [
                0.5885928273200989,
                0.5403770804405212,
                0.4665226340293884
            ],
            "translation" : [
                0,
                -0.41398435831069946,
                -0.00527503015473485
            ]
        },
        {
            "name" : "Empty",
            "rotation" : [
                0.5052528381347656,
                0.5052528381347656,
                -0.4946914315223694,
                0.4946913719177246
            ],
            "translation" : [
                0.008536070585250854,
                0,
                -0.12153667956590652
            ]
        },
        {
            "mesh" : 1,
            "name" : "Plane.001",
            "rotation" : [
                0,
                0,
                -0.7071067690849304,
                0.7071068286895752
            ],
            "scale" : [
                0.5885928273200989,
                0.5403770804405212,
                0.4665226340293884
            ],
            "translation" : [
                0,
                -0.41398435831069946,
                -0.00527503015473485
            ]
        }
    ],
    "materials" : [
        {
            "doubleSided" : true,
            "extensions" : {
                "KHR_materials_unlit" : {}
            },
            "name" : "Material.002",
            "pbrMetallicRoughness" : {
                "baseColorTexture" : {
                    "index" : 0
                },
                "metallicFactor" : 0,
                "roughnessFactor" : 0.9
            }
        }
    ],
    "meshes" : [
        {
            "name" : "Plane",
            "primitives" : [
                {
                    "attributes" : {
                        "POSITION" : 0,
                        "NORMAL" : 1,
                        "TEXCOORD_0" : 2
                    },
                    "indices" : 3,
                    "material" : 0
                }
            ]
        },
        {
            "name" : "Plane.001",
            "primitives" : [
                {
                    "attributes" : {
                        "POSITION" : 4,
                        "NORMAL" : 5,
                        "TEXCOORD_0" : 6
                    },
                    "indices" : 7
                }
            ]
        }
    ],
    "textures" : [
        {
            "sampler" : 0,
            "source" : 0
        }
    ],
    "images" : [
        {
            "bufferView" : 4,
            "mimeType" : "image/jpeg",
            "name" : "1582744901995 (1)"
        }
    ],
    "accessors" : [
        {
            "bufferView" : 0,
            "componentType" : 5126,
            "count" : 10754,
            "max" : [
                1,
                2.60672217144986e-09,
                0.9897254705429077
            ],
            "min" : [
                -1.0084929466247559,
                -0.10877677798271179,
                -0.9985700845718384
            ],
            "type" : "VEC3"
        },
        {
            "bufferView" : 1,
            "componentType" : 5126,
            "count" : 10754,
            "type" : "VEC3"
        },
        {
            "bufferView" : 2,
            "componentType" : 5126,
            "count" : 10754,
            "type" : "VEC2"
        },
        {
            "bufferView" : 3,
            "componentType" : 5123,
            "count" : 39747,
            "type" : "SCALAR"
        },
        {
            "bufferView" : 5,
            "componentType" : 5126,
            "count" : 129,
            "max" : [
                -0.7139472961425781,
                1.6513899936398957e-07,
                0.21161092817783356
            ],
            "min" : [
                -2.9608359336853027,
                -9.783342846958476e-08,
                -0.1836453229188919
            ],
            "type" : "VEC3"
        },
        {
            "bufferView" : 6,
            "componentType" : 5126,
            "count" : 129,
            "type" : "VEC3"
        },
        {
            "bufferView" : 7,
            "componentType" : 5126,
            "count" : 129,
            "type" : "VEC2"
        },
        {
            "bufferView" : 8,
            "componentType" : 5123,
            "count" : 207,
            "type" : "SCALAR"
        }
    ],
    "bufferViews" : [
        {
            "buffer" : 0,
            "byteLength" : 129048,
            "byteOffset" : 0
        },
        {
            "buffer" : 0,
            "byteLength" : 129048,
            "byteOffset" : 129048
        },
        {
            "buffer" : 0,
            "byteLength" : 86032,
            "byteOffset" : 258096
        },
        {
            "buffer" : 0,
            "byteLength" : 79494,
            "byteOffset" : 344128
        },
        {
            "buffer" : 0,
            "byteLength" : 1205848,
            "byteOffset" : 423624
        },
        {
            "buffer" : 0,
            "byteLength" : 1548,
            "byteOffset" : 1629472
        },
        {
            "buffer" : 0,
            "byteLength" : 1548,
            "byteOffset" : 1631020
        },
        {
            "buffer" : 0,
            "byteLength" : 1032,
            "byteOffset" : 1632568
        },
        {
            "buffer" : 0,
            "byteLength" : 414,
            "byteOffset" : 1633600
        }
    ],
    "samplers" : [
        {
            "magFilter" : 9729,
            "minFilter" : 9987
        }
    ],
    "buffers" : [
        {
            "byteLength" : 1634016,
            "uri" : "data:application/octet-stream;base64,"
        }
    ]
}
